<?xml version="1.0" encoding="UTF-8" standalone="no"?>
<!-- Created with Inkscape (http://www.inkscape.org/) -->

<svg
   xmlns:sketch="http://www.bohemiancoding.com/sketch/ns"
   xmlns:dc="http://purl.org/dc/elements/1.1/"
   xmlns:cc="http://creativecommons.org/ns#"
   xmlns:rdf="http://www.w3.org/1999/02/22-rdf-syntax-ns#"
   xmlns:svg="http://www.w3.org/2000/svg"
   xmlns="http://www.w3.org/2000/svg"
   xmlns:sodipodi="http://sodipodi.sourceforge.net/DTD/sodipodi-0.dtd"
   xmlns:inkscape="http://www.inkscape.org/namespaces/inkscape"
   width="3000"
   height="1200"
   viewBox="0 0 793.74998 317.50001"
   version="1.1"
   id="svg8"
   inkscape:version="0.92.2 (5c3e80d, 2017-08-06)"
   sodipodi:docname="back1-750.svg">
  <defs
     id="defs2" />
  <sodipodi:namedview
     id="base"
     pagecolor="#ffffff"
     bordercolor="#666666"
     borderopacity="1.0"
     inkscape:pageopacity="0"
     inkscape:pageshadow="2"
     inkscape:zoom="0.49497475"
     inkscape:cx="1444.4811"
     inkscape:cy="383.78829"
     inkscape:document-units="mm"
     inkscape:current-layer="layer1"
     showgrid="false"
     units="px"
     inkscape:window-width="1920"
     inkscape:window-height="1018"
     inkscape:window-x="-8"
     inkscape:window-y="-8"
     inkscape:window-maximized="1" />
  <metadata
     id="metadata5">
    <rdf:RDF>
      <cc:Work
         rdf:about="">
        <dc:format>image/svg+xml</dc:format>
        <dc:type
           rdf:resource="http://purl.org/dc/dcmitype/StillImage" />
        <dc:title></dc:title>
      </cc:Work>
    </rdf:RDF>
  </metadata>
  <g
     inkscape:label="Layer 1"
     inkscape:groupmode="layer"
     id="layer1"
     transform="translate(0,20.500017)">
    <g
       sketch:type="MSPage"
       id="hero-post-1.0"
       transform="matrix(0.26458333,0,0,0.26458333,0.24656155,131.39351)"
       style="fill:none;fill-rule:evenodd;stroke:none;stroke-width:1">
      <g
         transform="translate(-99,-229)"
         sketch:type="MSLayerGroup"
         id="BG">
        <g
           sketch:type="MSShapeGroup"
           transform="translate(598.71286)"
           id="Planets">
          <g
             transform="translate(0.75,0.522007)"
             id="Left-Big">
            <g
               transform="translate(0.628245,0.487764)"
               id="Circles"
               style="stroke:#c98c81">
              <circle
                 cy="270.2796"
                 cx="269.47858"
                 id="Overlay"
                 r="269.47287"
                 style="opacity:0.27950092;stroke-width:2" />
              <circle
                 cy="270.2796"
                 cx="269.47858"
                 id="ellipse3706"
                 r="194.99925"
                 style="opacity:0.27419547;stroke-width:4" />
              <circle
                 cy="270.2796"
                 cx="269.47858"
                 id="ellipse3708"
                 r="143.94556"
                 style="opacity:0.29151121;stroke-width:6" />
            </g>
            <path
               id="Planet"
               d="m 162.25414,272.28497 c 0,59.43255 48.15388,107.61191 107.555,107.61191 59.40111,0 107.55499,-48.17936 107.55499,-107.61191 0,-59.43255 -48.15388,-107.61191 -107.55499,-107.61191 -59.40112,0 -107.555,48.17936 -107.555,107.61191 z"
               inkscape:connector-curvature="0"
               style="fill:#72acab" />
            <path
               id="path3712"
               d="m 428.2153,340.49455 c 0,12.29918 9.96513,22.26959 22.25781,22.26959 12.29268,0 22.25781,-9.97041 22.25781,-22.26959 0,-12.29919 -9.96513,-22.26959 -22.25781,-22.26959 -12.29268,0 -22.25781,9.9704 -22.25781,22.26959 z"
               inkscape:connector-curvature="0"
               style="fill:#c98c81" />
            <path
               id="path3714"
               d="m 322.96612,395.7567 c 0,7.33983 5.94693,13.28991 13.28289,13.28991 7.33595,0 13.28289,-5.95008 13.28289,-13.28991 0,-7.33984 -5.94694,-13.28992 -13.28289,-13.28992 -7.33596,0 -13.28289,5.95008 -13.28289,13.28992 z"
               inkscape:connector-curvature="0"
               style="fill:#c98c81" />
            <path
               id="path3716"
               d="m 79.427834,471.33116 c 0,7.33983 5.946936,13.28992 13.28289,13.28992 7.335956,0 13.282886,-5.95009 13.282886,-13.28992 0,-7.33984 -5.94693,-13.28992 -13.282886,-13.28992 -7.335954,0 -13.28289,5.95008 -13.28289,13.28992 z"
               inkscape:connector-curvature="0"
               style="fill:#79a69f" />
          </g>
          <g
             transform="translate(1512,125)"
             id="Right">
            <g
               id="g3725"
               style="stroke:#c98c81">
              <circle
                 cy="189.00407"
                 cx="188.46455"
                 id="ellipse3719"
                 r="188.34225"
                 style="opacity:0.28334889;stroke-width:2" />
              <circle
                 cy="189.00407"
                 cx="188.46455"
                 id="ellipse3721"
                 r="131.38861"
                 style="opacity:0.22603778;stroke-width:4" />
              <circle
                 cy="189.00407"
                 cx="188.46455"
                 id="ellipse3723"
                 r="100.79313"
                 style="opacity:0.29151121;stroke-width:6" />
            </g>
            <path
               id="path3727"
               d="m 139.80552,180.30417 c 0,27.78866 22.51514,50.31571 50.2891,50.31571 27.77397,0 50.2891,-22.52705 50.2891,-50.31571 0,-27.78866 -22.51513,-50.31571 -50.2891,-50.31571 -27.77396,0 -50.2891,22.52705 -50.2891,50.31571 z"
               inkscape:connector-curvature="0"
               style="fill:#3e8b8a" />
            <path
               id="path3729"
               d="m 221.83904,197.73845 c 0,7.95389 6.44446,14.40177 14.39414,14.40177 7.94969,0 14.39415,-6.44788 14.39415,-14.40177 0,-7.95389 -6.44446,-14.40176 -14.39415,-14.40176 -7.94968,0 -14.39414,6.44787 -14.39414,14.40176 z"
               inkscape:connector-curvature="0"
               style="fill:#ca8c81" />
            <path
               id="path3731"
               d="m 70.959669,176.11042 c 0,11.94486 9.678051,21.62803 21.616592,21.62803 11.938539,0 21.616589,-9.68317 21.616589,-21.62803 0,-11.94486 -9.67805,-21.62803 -21.616589,-21.62803 -11.938541,0 -21.616592,9.68317 -21.616592,21.62803 z"
               inkscape:connector-curvature="0"
               style="fill:#ca8c81" />
            <path
               id="path3733"
               d="m 365.12665,180.30417 c 0,5.57107 4.51383,10.08729 10.08195,10.08729 5.56812,0 10.08195,-4.51622 10.08195,-10.08729 0,-5.57107 -4.51383,-10.08729 -10.08195,-10.08729 -5.56812,0 -10.08195,4.51622 -10.08195,10.08729 z"
               inkscape:connector-curvature="0"
               style="fill:#ca8c81" />
            <path
               id="path3735"
               d="m 253.11765,292.62727 c 0,7.47254 6.05446,13.5302 13.52305,13.5302 7.46858,0 13.52304,-6.05766 13.52304,-13.5302 0,-7.47254 -6.05446,-13.5302 -13.52304,-13.5302 -7.46859,0 -13.52305,6.05766 -13.52305,13.5302 z"
               inkscape:connector-curvature="0"
               style="fill:#79a69f" />
          </g>
        </g>
        <g
           sketch:type="MSShapeGroup"
           transform="translate(0,206.5)"
           id="Rocks">
          <g
             transform="translate(122,330)"
             id="Back"
             style="fill:#e34b30">
            <path
               id="Mountains-Back"
               d="m 232.32812,38.488281 78.39454,7.878906 18.05859,-41.570312 90.75,94.679687 114.22266,-71.777343 64.01562,100.425781 72.72266,-20.76953 58.11328,81.84765 40.54687,-11.54296 31.92578,40.17968 53.69532,16.34375 h 99.64062 l 63.07814,-11.91406 37.0859,5.44922 76.9453,-20.3125 78.625,10.43359 91.7149,-28.63672 70.4336,18.20313 65.7539,-13.51563 25.4453,13.51563 h 159.9023 l 138.2383,10.43359 h 84.0742 l 96.1993,-28.63672 39.8945,-23.64062 19.3789,12.09766 104.6875,-12.09766 73.1016,-25.4375 68.9804,10.22266 L 2300.7539,140.125 2405.8008,0.6796875 2575.543,182.52734 h 85 l 29.1875,-83.050778 30.6679,118.363278 51.9532,16.34375 71.0742,-153.109371 14.3203,47.050781 21.2812,-123.328125 25.2188,160.765625 14.3203,-84.488281 43.25,249.371091 H 0.08984375 Z"
               inkscape:connector-curvature="0" />
          </g>
          <g
             transform="translate(208,308)"
             id="Mid"
             style="fill:#ba3525">
            <path
               id="Mountains-Mid"
               d="m 0.3984375,210.52763 127.8359325,-55.46094 61.63282,-59.523721 76.99609,94.867191 240.31836,-65.66378 62.61523,85.78125 81.35938,-20.11747 70.66992,88.60575 81.23438,-20.44141 69.20703,20.44141 h 48.99804 153.72268 215.168 l 128.8359,-7.3245 56.5703,-21.28515 88.043,21.28515 181.5312,-25.3164 75.1309,39.74246 182.0351,-52.42578 29.7207,-23.16406 60.9629,23.16406 76.1719,-23.16406 71.9316,-114.984661 103.8125,48.750011 71.8575,-144.02316651 84.5605,173.32394651 46.957,-83.367198 35.6915,143.465128 267.9648,197.28097 L 86.203125,368.3086 Z"
               inkscape:connector-curvature="0" />
          </g>
          <g
             id="Front"
             style="fill:#991f16">
            <g
               transform="translate(50,431.5)"
               id="Seamless">
              <rect
                 height="180"
                 width="185"
                 y="0"
                 x="0"
                 id="Seamless-left" />
              <rect
                 height="180"
                 width="185"
                 y="0"
                 x="2982"
                 id="Seamless-right" />
            </g>
            <path
               id="Mountains-Front"
               d="m 53.390625,578.96875 135.707035,-156.13672 117.82649,78.34799 133.56022,-102.11361 40.53516,23.76562 60.76172,-112.22266 162.21094,185.5 60.375,-34.63281 88.41015,111.25781 h 463.25786 l 39.8867,-13.15234 16.9844,13.15234 h 199.0468 l 28.8106,-13.15234 73.0957,13.15234 h 266.2148 l 157.1211,-50.4375 85.1406,-2 123.6485,69.71875 82.625,-51.39843 73.2031,-16.32032 34.6328,50.4375 128.6602,-50.4375 77.1406,-161.52734 47.1735,187.95115 34.3734,-114.65818 28.6015,100.16406 198.4571,-61.1289 34.2422,-100.32032 140.9296,274.28125 L 1531.4609,735.53125 60.558594,689.53906 Z"
               inkscape:connector-curvature="0" />
            <path
               transform="rotate(128,321.14798,357.01358)"
               id="Left-arm"
               d="M 665.08635,371.06588 C 688.19929,487.0944 528.38873,449.72309 368.49153,483.42014 143.48837,532.34493 96.010029,387.99469 96.010029,387.99469 59.219335,294.52463 6.2096635,269.65375 6.2096635,269.65375 -67.170829,219.45661 11.740991,220.48788 11.740991,220.48788 c 81.215424,5.70544 123.979419,83.35831 123.979419,83.35831 72.13494,123.6312 189.20354,87.88516 235.35598,67.21969 81.56114,-38.1691 270.89701,-116.02852 294.00996,0 z m -297.24254,43.92417 c 1.15924,6.53757 -5.56705,13.26387 -15.17796,15.05664 -9.44916,1.73887 -18.19738,-2.31848 -19.39706,-8.80214 -1.17272,-6.71281 5.67488,-13.4391 15.11056,-15.17796 9.61092,-1.67146 18.23782,2.26456 19.46446,8.92346 z m -61.99241,10.541 c 0.22915,6.71281 -7.58898,12.27986 -17.26729,12.40118 -9.73223,0.22915 -17.60428,-5.21659 -17.71212,-11.82156 0,-6.78021 7.6429,-12.27986 17.37513,-12.4551 9.66483,-0.18871 17.60428,5.21659 17.60428,11.87548 z m -66.6159,-4.86612 c -1.98149,6.36235 -11.12062,9.26045 -20.34062,6.55106 -9.20653,-2.79026 -15.23189,-10.25793 -13.37171,-16.68767 1.9141,-6.42974 11.10714,-9.43568 20.39455,-6.55106 9.19305,2.77679 15.23188,10.19053 13.31778,16.68767 z m -60.65793,-26.29858 c -4.46173,4.92003 -13.96481,3.58556 -20.92025,-3.12725 -7.1172,-6.55106 -9.09869,-15.87891 -4.62348,-20.79894 4.51564,-4.92003 14.07264,-3.54512 21.082,3.12726 7.06328,6.55105 9.22001,15.91933 4.46173,20.79893 z M 134.6073,349.06161 c -4.98743,3.47772 -13.14255,0.22915 -18.1839,-7.00936 -4.98743,-7.23852 -4.98743,-15.93282 0.10784,-19.41054 5.05483,-3.47772 13.08863,-0.33699 18.19738,6.83413 4.97395,7.35982 4.97395,16.04065 -0.12132,19.58577 z m -32.09479,-46.86837 c -3.882103,3.58556 -11.471085,1.9141 -16.62027,-3.77427 -5.324419,-5.67489 -6.321905,-13.26387 -2.385879,-16.91682 4.003424,-3.58556 11.363253,-1.90062 16.701149,3.77427 5.32442,5.74228 6.36235,13.26387 2.305,16.91682 z M 55.59023,267.90129 c -5.904039,-2.66895 -9.220006,-8.18208 -7.305911,-12.23943 1.75234,-4.15169 8.128163,-5.31093 14.018723,-2.53415 5.917519,2.65547 9.287404,8.22252 7.238514,12.27986 -1.792779,4.05735 -8.155123,5.2705 -13.951326,2.49372 z"
               inkscape:connector-curvature="0" />
            <path
               transform="matrix(-0.22495105,0.97437006,0.97437006,0.22495105,2919.2509,-2322.077)"
               id="Path"
               d="m 3156.5289,521.54567 c 24.9019,125.00889 -147.2777,84.74512 -319.5506,121.05025 -242.4179,52.71146 -293.571,-102.81118 -293.571,-102.81118 -39.6382,-100.70444 -96.7507,-127.50028 -96.7507,-127.50028 -79.06,-54.08229 5.9594,-52.9712 5.9594,-52.9712 87.5014,6.14702 133.5752,89.81007 133.5752,89.81007 77.718,133.19999 203.8475,94.68728 253.572,72.42235 76.995,-48.23249 291.8639,-125.00889 316.7657,-10e-6 z m -320.2484,47.32381 c 1.2489,7.04357 -5.9979,14.29047 -16.3527,16.222 -10.1805,1.87345 -19.6058,-2.49792 -20.8984,-9.48341 -1.2635,-7.23236 6.1141,-14.47926 16.2801,-16.3527 10.3548,-1.80083 19.6494,2.43983 20.971,9.61411 z m -66.7905,11.35685 c 0.2469,7.23237 -8.1764,13.2303 -18.6038,13.36101 -10.4855,0.24689 -18.9668,-5.62034 -19.083,-12.73652 0,-7.30499 8.2345,-13.2303 18.72,-13.4191 10.4128,-0.20332 18.9668,5.62034 18.9668,12.79461 z m -71.7718,-5.24274 c -2.1349,6.85478 -11.9814,9.97719 -21.915,7.0581 -9.9191,-3.00623 -16.4108,-11.05187 -14.4066,-17.97926 2.0622,-6.92739 11.9668,-10.16599 21.973,-7.0581 9.9046,2.9917 16.4108,10.97926 14.3486,17.97926 z m -65.3528,-28.33404 c -4.807,5.30084 -15.0456,3.86307 -22.5394,-3.36929 -7.6681,-7.0581 -9.8029,-17.1079 -4.9813,-22.40873 4.8651,-5.30083 15.1618,-3.8195 22.7137,3.3693 7.6099,7.05809 9.9336,17.15146 4.807,22.40872 z m -47.3734,-48.81123 c -5.3735,3.74689 -14.1598,0.24689 -19.5913,-7.55187 -5.3735,-7.79876 -5.3735,-17.16598 0.1161,-20.91287 5.4461,-3.7469 14.1017,-0.36307 19.6059,7.36307 5.3589,7.92946 5.3589,17.28217 -0.1307,21.10167 z m -34.5789,-50.49588 c -4.1826,3.86307 -12.3589,2.06224 -17.9067,-4.06639 -5.7365,-6.11411 -6.8112,-14.29046 -2.5705,-18.22615 4.3133,-3.86307 12.2427,-2.04772 17.9938,4.06639 5.7365,6.18673 6.8548,14.29047 2.4834,18.22615 z m -35.5228,-39.6328 c -1.9316,4.37137 -8.7864,5.67843 -15.0312,2.68672 -6.361,-2.87552 -9.9336,-8.81535 -7.8714,-13.18673 1.888,-4.47303 8.7573,-5.72199 15.1038,-2.73029 6.3755,2.861 10.0062,8.85893 7.7988,13.2303 z"
               inkscape:connector-curvature="0" />
          </g>
        </g>
        <g
           sketch:type="MSShapeGroup"
           transform="translate(2095.7921,520.57171)"
           id="Rocket"
           style="fill:#991f16">
          <path
             id="Path-24"
             d="m 44.000301,0.08802838 c 0,0 1.101728,23.23480862 1.101728,30.99099762 3.896023,8.059201 14.824464,48.634955 14.824464,91.070774 0,42.43582 -10.129241,59.48328 -10.129241,59.48328 H 38.538665 c 0,0 -9.778419,-17.50101 -9.778419,-59.48328 0,-41.982271 8.369318,-72.424262 14.35008,-91.070774 0,-7.880236 0.889975,-30.99099762 0.889975,-30.99099762 z"
             inkscape:connector-curvature="0" />
          <path
             id="Path-25"
             d="m 23.415873,121.14644 -2.048719,34.3133 23.154856,-1.80321 c 0,0 -0.239695,4.1375 -0.239695,9.19566 -29.425708,-5.05816 -33.096088,30.64033 -39.9354896,49.27974 L 0.28750555,213.23608 19.4147,121.26919 Z"
             inkscape:connector-curvature="0" />
          <path
             transform="matrix(-1,0,0,1,132.13884,0)"
             id="path3753"
             d="m 67.080535,121.14644 -2.048719,34.3133 23.154857,-1.80321 c 0,0 -0.239696,4.1375 -0.239696,9.19566 -29.425708,-5.05816 -33.096088,30.64033 -39.935489,49.27974 l -4.05932,1.10415 19.127195,-91.96689 z"
             inkscape:connector-curvature="0" />
        </g>
        <g
           sketch:type="MSShapeGroup"
           transform="translate(1023.109,704)"
           id="Octocat"
           style="fill:#991f16">
          <path
             transform="matrix(-1,0,0,1,121.35919,0)"
             id="Fire"
             d="m 67.410802,24.865868 c 0,-1.554998 0.932849,-2.838631 0.932849,-2.838631 l -15.328115,0.456742 c 0,0 11.902644,1.034548 11.902644,1.966427 0,0.960541 -5.500855,2.567217 -5.500855,2.567217 l 8.926326,0.686876 c 0,0 -0.932849,-1.283633 -0.932849,-2.838631 z"
             inkscape:connector-curvature="0" />
          <path
             transform="matrix(1,0,0,-1,0,50.8798)"
             id="Ship"
             d="m 25.714658,30.056093 c 20.699005,0 25.714656,0.904594 25.714657,-3.814281 0,-4.718875 -20.365757,-5.536503 -25.714657,-5.536503 C 20.365757,20.705309 0,21.262459 0,26.241812 c 0,4.979353 5.0156522,3.814281 25.714658,3.814281 z"
             inkscape:connector-curvature="0" />
          <path
             id="path3758"
             d="m 23.227346,24.49646 c 0,-0.417634 -0.01076,-1.980679 -0.01575,-2.94996 -3.227092,0.701701 -3.908046,-1.368632 -3.908046,-1.368632 -0.527668,-1.340588 -1.287956,-1.697297 -1.287956,-1.697297 -1.052455,-0.719949 0.07933,-0.705158 0.07933,-0.705158 1.164826,0.08183 1.778166,1.195561 1.778166,1.195561 1.03459,1.773171 2.713638,1.260486 3.375576,0.964093 0.104113,-0.74953 0.404732,-1.261447 0.736469,-1.551117 -2.576487,-0.293127 -5.284939,-1.287955 -5.284939,-5.732698 0,-1.26625 0.453137,-2.301032 1.195176,-3.1133755 -0.12044,-0.2923592 -0.517487,-1.4721687 0.112372,-3.0699634 0,0 0.974082,-0.311568 3.190787,1.1892218 0.925292,-0.2570148 1.917623,-0.3859064 2.903423,-0.3905165 0.985799,0.00461 1.978898,0.1335017 2.905919,0.3905165 2.214016,-1.5007898 3.186561,-1.1892218 3.186561,-1.1892218 0.631588,1.5977947 0.234349,2.7776042 0.113909,3.0699634 0.743768,0.8123435 1.193832,1.8471255 1.193832,3.1133755 0,4.4555 -2.713639,5.436305 -5.296657,5.723478 0.416064,0.359974 0.786796,1.065901 0.786796,2.148129 0,1.552078 -0.01599,3.726464 -0.01599,3.973601 -0.658217,0.181293 -1.687703,0.358869 -2.874369,0.360499 -1.186666,-0.0016 -2.139427,-0.167028 -2.874609,-0.360499 z"
             inkscape:connector-curvature="0" />
          <path
             id="Shape"
             d="m 25.840428,24.258947 c 4.779556,0 7.839666,-0.380818 10.203947,-1.500823 2.959481,-1.401963 4.490143,-3.940548 4.490143,-7.849962 0,-8.1153218 -6.578768,-14.69408998 -14.69409,-14.69408998 -8.115322,0 -14.69409,6.57876818 -14.69409,14.69408998 0,3.909414 1.530663,6.447999 4.490144,7.849962 2.36428,1.120005 5.42439,1.500823 10.203946,1.500823 z m 0,-2.00374 c -9.573993,0 -13.358263,-1.792681 -13.358263,-8.014958 0,-7.3775655 5.980698,-13.35826379 13.358263,-13.35826379 7.377565,0 13.358264,5.98069829 13.358264,13.35826379 0,6.222277 -3.784271,8.014958 -13.358264,8.014958 z"
             inkscape:connector-curvature="0" />
        </g>
      </g>
    </g>
  </g>
</svg>
